<svg width="18" height="18" viewBox="0 0 18 18" fill="none" xmlns="http://www.w3.org/2000/svg">
<path fill-rule="evenodd" clip-rule="evenodd" d="M8.99935 16.0837C9.76852 16.0837 10.6783 15.5575 11.463 14.2497C11.6925 13.8673 11.8994 13.4342 12.0769 12.9587H5.92176C6.09925 13.4342 6.30622 13.8673 6.53568 14.2497C7.32034 15.5575 8.23018 16.0837 8.99935 16.0837ZM5.54867 11.7087C5.35754 10.8802 5.24935 9.96758 5.24935 9.00033C5.24935 8.03308 5.35754 7.12042 5.54867 6.29199H12.45C12.6412 7.12042 12.7493 8.03308 12.7493 9.00033C12.7493 9.96758 12.6412 10.8802 12.45 11.7087H5.54867ZM13.4003 12.9587C13.1152 13.8377 12.7379 14.6216 12.2902 15.2744C13.3314 14.7272 14.2198 13.9283 14.8743 12.9587H13.4003ZM15.5464 11.7087H13.7293C13.9043 10.8595 13.9993 9.94841 13.9993 9.00033C13.9993 8.05224 13.9043 7.14113 13.7293 6.29199H15.5464C15.892 7.12634 16.0827 8.04108 16.0827 9.00033C16.0827 9.95958 15.892 10.8743 15.5464 11.7087ZM4.26934 11.7087H2.45222C2.1067 10.8743 1.91602 9.95958 1.91602 9.00033C1.91602 8.04108 2.1067 7.12634 2.45222 6.29199H4.26934C4.09435 7.14113 3.99935 8.05224 3.99935 9.00033C3.99935 9.94841 4.09435 10.8595 4.26934 11.7087ZM3.12437 12.9587H4.59832C4.88354 13.8377 5.26078 14.6216 5.70853 15.2744C4.6673 14.7272 3.77897 13.9283 3.12437 12.9587ZM5.92176 5.04199H12.0769C11.8994 4.56643 11.6925 4.13333 11.463 3.75089C10.6783 2.44313 9.76852 1.91699 8.99935 1.91699C8.23018 1.91699 7.32034 2.44313 6.53568 3.75089C6.30622 4.13333 6.09925 4.56643 5.92176 5.04199ZM13.4003 5.04199H14.8743C14.2198 4.07234 13.3314 3.27348 12.2902 2.72621C12.7379 3.3791 13.1152 4.16299 13.4003 5.04199ZM5.70853 2.72621C5.26078 3.37911 4.88353 4.16299 4.59832 5.04199H3.12437C3.77897 4.07234 4.6673 3.27348 5.70853 2.72621ZM8.99935 0.666992C13.6017 0.666992 17.3327 4.39795 17.3327 9.00033C17.3327 13.6027 13.6017 17.3337 8.99935 17.3337C4.39697 17.3337 0.666016 13.6027 0.666016 9.00033C0.666016 4.39795 4.39697 0.666992 8.99935 0.666992Z" fill="#212121"/>
</svg>
